<?xml version="1.0" encoding="UTF-8" standalone="no"?>
<!DOCTYPE svg PUBLIC "-//W3C//DTD SVG 1.1//EN" "http://www.w3.org/Graphics/SVG/1.1/DTD/svg11.dtd">
<svg width="100%" height="100%" viewBox="0 0 500 226" version="1.1" xmlns="http://www.w3.org/2000/svg" xmlns:xlink="http://www.w3.org/1999/xlink" xml:space="preserve" xmlns:serif="http://www.serif.com/" style="fill-rule:evenodd;clip-rule:evenodd;stroke-linejoin:round;stroke-miterlimit:2;">
    <g transform="matrix(1,0,0,1,-710,-31.8607)">
        <g transform="matrix(3.91931,0,0,2.11911,-1383.29,-251.302)">
            <g transform="matrix(1,0,0,1,36.3735,-116.266)">
                <g transform="matrix(3.65109,0,0,6.75271,-2289.25,-3306.39)">
                    <text x="763.056px" y="535.906px" style="font-family:'Athletic Outfit';font-size:12px;">Chalky&apos;s</text>
                </g>
                <g transform="matrix(2.24698,0,0,4.15579,-1177.04,-1878.13)">
                    <text x="763.056px" y="535.906px" style="font-family:'Montserrat-Regular', 'Montserrat';font-size:9.084px;">Blog</text>
                </g>
                <g id="XMLID_1960_" transform="matrix(0.218267,0,0,0.403685,607.834,320.17)">
                    <path d="M76,2L16,2C13.8,2 12,3.8 12,6L12,86C12,88.2 13.8,90 16,90L76,90C78.2,90 80,88.2 80,86L80,6C80,3.8 78.2,2 76,2ZM72,82L20,82L20,10L72,10L72,82ZM28.5,65C28.5,62.8 30.3,61 32.5,61L59.5,61C61.7,61 63.5,62.8 63.5,65C63.5,67.2 61.7,69 59.5,69L32.5,69C30.3,69 28.5,67.2 28.5,65ZM29.1,46C29.1,43.8 30.9,42 33.1,42L59.4,42C61.6,42 63.4,43.8 63.4,46C63.4,48.2 61.6,50 59.4,50L33.1,50C30.9,50 29.1,48.2 29.1,46ZM29.1,27C29.1,24.8 30.9,23 33.1,23L59.4,23C61.6,23 63.4,24.8 63.4,27C63.4,29.2 61.6,31 59.4,31L33.1,31C30.9,31 29.1,29.2 29.1,27Z" style="fill-rule:nonzero;"/>
                </g>
            </g>
        </g>
    </g>
</svg>
