<?xml version="1.0" encoding="UTF-8" standalone="no"?>
<!DOCTYPE svg PUBLIC "-//W3C//DTD SVG 1.1//EN" "http://www.w3.org/Graphics/SVG/1.1/DTD/svg11.dtd">
<svg width="100%" height="100%" viewBox="0 0 500 226" version="1.1" xmlns="http://www.w3.org/2000/svg" xmlns:xlink="http://www.w3.org/1999/xlink" xml:space="preserve" xmlns:serif="http://www.serif.com/" style="fill-rule:evenodd;clip-rule:evenodd;stroke-linejoin:round;stroke-miterlimit:2;">
    <g transform="matrix(1,0,0,1,-710,-31.8607)">
        <g transform="matrix(3.91931,0,0,2.11911,-1383.29,-251.302)">
            <g transform="matrix(3.65109,0,0,6.75271,-2252.87,-3422.66)">
                <path d="M764.397,536.712C764.087,536.44 763.83,536.078 763.628,535.627C763.426,535.175 763.324,534.616 763.324,533.949C763.324,533.592 763.343,533.265 763.381,532.969C763.419,532.673 763.48,532.37 763.564,532.059C763.734,531.401 764.002,530.748 764.369,530.099C764.736,529.451 765.164,528.871 765.654,528.358C766.143,527.846 766.67,527.432 767.235,527.117C767.8,526.803 768.369,526.645 768.943,526.645C769.263,526.645 769.555,526.7 769.819,526.81C770.082,526.921 770.306,527.062 770.489,527.234C770.673,527.406 770.814,527.603 770.913,527.824C771.012,528.045 771.061,528.269 771.061,528.494C771.061,528.833 770.976,529.172 770.807,529.511C770.637,529.85 770.426,530.153 770.172,530.422C769.917,530.69 769.642,530.906 769.346,531.071C769.049,531.236 768.769,531.318 768.506,531.318C768.383,531.318 768.273,531.297 768.174,531.254C768.075,531.212 768.026,531.158 768.026,531.092C768.026,531.026 768.148,530.956 768.393,530.88C768.647,530.796 768.882,530.659 769.099,530.471C769.315,530.283 769.506,530.069 769.67,529.829C769.835,529.589 769.964,529.344 770.059,529.094C770.153,528.845 770.2,528.617 770.2,528.41C770.2,528.08 770.139,527.8 770.016,527.57C769.894,527.339 769.734,527.224 769.536,527.224C769.376,527.224 769.164,527.276 768.901,527.379C768.637,527.482 768.379,527.623 768.124,527.802C767.654,528.131 767.223,528.528 766.833,528.993C766.442,529.458 766.108,529.964 765.83,530.509C765.553,531.054 765.339,531.632 765.188,532.242C765.037,532.853 764.962,533.473 764.962,534.103C764.962,535.062 765.15,535.757 765.527,536.19C765.903,536.622 766.393,536.838 766.995,536.838C767.55,536.838 768.122,536.673 768.71,536.344C769.299,536.014 769.856,535.483 770.383,534.749C770.59,534.447 770.812,534.09 771.047,533.676C771.282,533.262 771.496,532.866 771.689,532.49C771.882,532.113 772.04,531.793 772.162,531.53C772.284,531.266 772.346,531.134 772.346,531.134C772.383,531.134 772.419,531.153 772.452,531.191C772.484,531.229 772.501,531.276 772.501,531.332C772.501,531.379 772.482,531.464 772.444,531.586C772.407,531.709 772.357,531.852 772.296,532.017C772.235,532.182 772.162,532.36 772.077,532.553C771.993,532.746 771.903,532.942 771.809,533.139C771.63,533.516 771.456,533.857 771.287,534.163C771.117,534.469 770.943,534.751 770.764,535.01C770.586,535.269 770.397,535.513 770.2,535.744C770.002,535.974 769.786,536.203 769.55,536.429C769.277,536.683 769.026,536.891 768.795,537.054C768.564,537.216 768.339,537.343 768.117,537.434C767.896,537.525 767.675,537.585 767.454,537.614C767.233,537.642 766.995,537.657 766.741,537.657C766.317,537.657 765.894,537.56 765.47,537.368C765.047,537.175 764.689,536.956 764.397,536.712Z" style="fill-rule:nonzero;"/>
                <path d="M774.082,534.48C774.082,534.179 774.115,533.852 774.181,533.499C774.247,533.146 774.36,532.692 774.52,532.137C774.595,531.892 774.656,531.678 774.703,531.494C774.75,531.311 774.774,531.196 774.774,531.149C774.774,531.111 774.76,531.092 774.732,531.092C774.666,531.092 774.562,531.212 774.421,531.452C774.28,531.692 774.124,532.005 773.955,532.391C773.786,532.777 773.616,533.21 773.447,533.69C773.277,534.17 773.136,534.65 773.023,535.13C772.948,535.45 772.87,535.654 772.79,535.744C772.71,535.833 772.576,535.878 772.388,535.878C772.284,535.878 772.19,535.854 772.106,535.807C772.021,535.76 771.922,535.685 771.809,535.582L771.569,535.37L771.555,535.003L771.555,534.734C771.536,533.982 771.649,532.956 771.894,531.657C772.167,530.16 772.428,529.069 772.677,528.382C772.927,527.694 773.183,527.351 773.447,527.351C773.579,527.351 773.724,527.391 773.884,527.471C774.044,527.551 774.124,527.652 774.124,527.774C774.124,527.897 774.082,528.16 773.997,528.565C773.884,529.054 773.781,529.542 773.687,530.026C773.593,530.511 773.51,530.953 773.44,531.353C773.369,531.753 773.315,532.09 773.277,532.363C773.24,532.636 773.221,532.805 773.221,532.871L773.221,532.885C773.23,532.894 773.247,532.869 773.27,532.807C773.294,532.746 773.32,532.673 773.348,532.589C773.461,532.278 773.583,531.991 773.715,531.727C773.847,531.464 773.981,531.238 774.116,531.05C774.252,530.862 774.385,530.713 774.515,530.605C774.646,530.497 774.767,530.443 774.879,530.443C775.018,530.443 775.153,530.471 775.284,530.527C775.415,530.584 775.527,530.662 775.621,530.76C775.715,530.859 775.79,530.97 775.847,531.092C775.903,531.214 775.932,531.346 775.932,531.487C775.932,531.779 775.889,532.113 775.804,532.49C775.663,533.092 775.564,533.546 775.508,533.852C775.452,534.158 775.423,534.382 775.423,534.523C775.423,534.758 775.466,534.876 775.55,534.876C775.616,534.876 775.699,534.791 775.797,534.622C775.896,534.452 776.004,534.238 776.122,533.979C776.24,533.72 776.355,533.44 776.468,533.139C776.581,532.838 776.687,532.558 776.786,532.299C776.884,532.04 776.967,531.826 777.033,531.657C777.099,531.487 777.141,531.403 777.16,531.403C777.273,531.403 777.329,531.454 777.329,531.558C777.329,531.586 777.32,531.662 777.301,531.784C777.282,531.906 777.249,532.033 777.202,532.165C777.089,532.485 776.964,532.862 776.828,533.294C776.692,533.727 776.536,534.139 776.362,534.53C776.188,534.92 775.993,535.252 775.776,535.525C775.56,535.798 775.321,535.934 775.06,535.934C774.892,535.934 774.746,535.894 774.62,535.814C774.494,535.734 774.392,535.629 774.313,535.497C774.234,535.365 774.175,535.212 774.138,535.038C774.101,534.864 774.082,534.678 774.082,534.48Z" style="fill-rule:nonzero;"/>
                <path d="M782.256,531.473C782.256,531.52 782.226,531.673 782.164,531.932C782.103,532.191 782.026,532.483 781.932,532.807C781.837,533.132 781.739,533.459 781.635,533.789C781.532,534.118 781.433,534.382 781.339,534.579C781.103,535.078 780.896,535.424 780.717,535.617C780.539,535.81 780.317,535.906 780.054,535.906C779.734,535.906 779.468,535.807 779.256,535.61C779.044,535.412 778.901,535.149 778.826,534.819L778.769,534.579L778.628,534.974C778.553,535.144 778.482,535.292 778.416,535.419C778.35,535.546 778.28,535.65 778.204,535.73C778.129,535.81 778.044,535.869 777.95,535.906C777.856,535.944 777.748,535.963 777.626,535.963C777.24,535.963 776.927,535.798 776.687,535.469C776.447,535.139 776.327,534.692 776.327,534.127C776.327,533.647 776.386,533.189 776.503,532.751C776.621,532.313 776.786,531.93 776.997,531.6C777.209,531.271 777.459,531.007 777.746,530.81C778.033,530.612 778.346,530.513 778.684,530.513C778.807,530.513 778.939,530.549 779.08,530.619C779.221,530.69 779.343,530.758 779.447,530.824L779.602,530.923L779.772,530.782C779.866,530.687 779.955,530.64 780.04,530.64C780.124,530.64 780.212,530.657 780.301,530.69C780.39,530.723 780.47,530.765 780.541,530.817C780.612,530.869 780.67,530.923 780.717,530.979C780.764,531.036 780.788,531.092 780.788,531.149C780.788,531.167 780.772,531.273 780.739,531.466C780.706,531.659 780.661,531.878 780.604,532.123C780.52,532.48 780.454,532.774 780.407,533.005C780.36,533.236 780.322,533.429 780.294,533.584C780.266,533.739 780.247,533.876 780.237,533.993C780.228,534.111 780.223,534.236 780.223,534.367C780.223,534.631 780.237,534.796 780.266,534.862C780.294,534.927 780.317,534.96 780.336,534.96C780.421,534.96 780.593,534.711 780.852,534.212C781.11,533.713 781.409,532.979 781.748,532.01C781.804,531.859 781.847,531.744 781.875,531.664C781.903,531.584 781.929,531.525 781.953,531.487C781.976,531.45 782,531.426 782.023,531.417C782.047,531.407 782.077,531.403 782.115,531.403C782.2,531.403 782.247,531.426 782.256,531.473ZM778.91,532.984C778.995,532.72 779.063,532.44 779.115,532.144C779.167,531.847 779.193,531.605 779.193,531.417C779.193,531.2 779.16,531.092 779.094,531.092C778.99,531.092 778.856,531.207 778.692,531.438C778.527,531.669 778.367,531.958 778.212,532.306C778.056,532.654 777.922,533.033 777.809,533.443C777.696,533.852 777.64,534.236 777.64,534.593C777.64,534.772 777.656,534.885 777.689,534.932C777.722,534.979 777.762,535.003 777.809,535.003C777.866,535.003 777.941,534.934 778.035,534.798C778.129,534.662 778.228,534.492 778.332,534.29C778.435,534.087 778.539,533.869 778.642,533.633C778.746,533.398 778.835,533.182 778.91,532.984Z" style="fill-rule:nonzero;"/>
                <path d="M783.612,529.68C783.517,530.132 783.426,530.589 783.336,531.05C783.247,531.511 783.169,531.951 783.103,532.37C783.037,532.789 782.986,533.174 782.948,533.527C782.91,533.88 782.892,534.174 782.892,534.41C782.892,534.57 782.899,534.694 782.913,534.784C782.927,534.873 782.948,534.918 782.976,534.918C783.014,534.918 783.082,534.843 783.181,534.692C783.28,534.542 783.383,534.358 783.492,534.142C783.6,533.925 783.706,533.69 783.809,533.436C783.913,533.182 783.993,532.951 784.049,532.744C784.172,532.302 784.266,531.963 784.332,531.727C784.397,531.492 784.482,531.374 784.586,531.374C784.717,531.374 784.783,531.436 784.783,531.558C784.783,531.605 784.76,531.723 784.713,531.911C784.666,532.099 784.609,532.306 784.543,532.532C784.477,532.758 784.414,532.974 784.353,533.182C784.292,533.389 784.247,533.534 784.219,533.619C784.115,533.892 784,534.172 783.873,534.459C783.746,534.746 783.616,535.007 783.484,535.243C783.353,535.478 783.214,535.669 783.068,535.814C782.922,535.96 782.774,536.033 782.623,536.033C782.548,536.033 782.477,536.019 782.412,535.991C782.204,535.934 782.035,535.859 781.903,535.765C781.772,535.671 781.668,535.556 781.593,535.419C781.517,535.283 781.466,535.123 781.437,534.939C781.409,534.756 781.395,534.537 781.395,534.283C781.395,533.906 781.433,533.452 781.508,532.92C781.583,532.389 781.673,531.859 781.776,531.332C781.88,530.805 781.986,530.316 782.094,529.864C782.202,529.412 782.294,529.069 782.369,528.833C782.444,528.57 782.506,528.351 782.553,528.177C782.6,528.003 782.644,527.864 782.687,527.76C782.729,527.657 782.774,527.586 782.821,527.549C782.868,527.511 782.934,527.492 783.019,527.492C783.103,527.492 783.195,527.502 783.294,527.52C783.393,527.539 783.484,527.57 783.569,527.612C783.654,527.654 783.724,527.704 783.781,527.76C783.837,527.817 783.866,527.883 783.866,527.958C783.866,527.986 783.856,528.073 783.837,528.219C783.819,528.365 783.795,528.532 783.767,528.72C783.739,528.909 783.71,529.092 783.682,529.271C783.654,529.45 783.63,529.586 783.612,529.68Z" style="fill-rule:nonzero;"/>
                <path d="M786.322,528.692C786.049,529.812 785.852,530.718 785.729,531.41C785.607,532.102 785.546,532.612 785.546,532.942L785.546,532.97C785.602,532.97 785.694,532.894 785.821,532.744C785.948,532.593 786.082,532.41 786.223,532.193C786.364,531.977 786.492,531.746 786.604,531.502C786.717,531.257 786.788,531.04 786.816,530.852C786.835,530.702 786.856,530.607 786.88,530.57C786.903,530.532 786.962,530.513 787.056,530.513C787.273,530.513 787.442,530.598 787.564,530.767C787.687,530.937 787.748,531.116 787.748,531.304C787.748,531.492 787.694,531.685 787.586,531.883C787.477,532.08 787.301,532.302 787.056,532.546L786.647,532.942L786.717,533.266C786.821,533.746 786.946,534.146 787.092,534.466C787.237,534.786 787.362,534.946 787.466,534.946C787.494,534.946 787.532,534.918 787.579,534.862C787.626,534.805 787.677,534.73 787.734,534.636C787.79,534.542 787.847,534.44 787.903,534.332C787.96,534.224 788.007,534.118 788.044,534.014C788.299,533.327 788.475,532.803 788.574,532.44C788.673,532.078 788.739,531.819 788.772,531.664C788.804,531.509 788.826,531.422 788.835,531.403C788.844,531.384 788.892,531.374 788.976,531.374C789.052,531.374 789.089,531.436 789.089,531.558C789.089,531.68 789.061,531.859 789.004,532.094C788.844,532.734 788.689,533.294 788.539,533.774C788.388,534.254 788.233,534.657 788.073,534.982C787.913,535.306 787.739,535.551 787.55,535.716C787.362,535.88 787.15,535.963 786.915,535.963C786.586,535.963 786.32,535.798 786.117,535.469C785.915,535.139 785.772,534.702 785.687,534.156C785.659,533.967 785.628,533.833 785.595,533.753C785.562,533.673 785.536,533.633 785.517,533.633C785.499,533.633 785.473,533.711 785.44,533.866C785.407,534.022 785.372,534.207 785.334,534.424C785.296,534.64 785.266,534.859 785.242,535.08C785.219,535.302 785.207,535.478 785.207,535.61C785.207,535.723 785.164,535.817 785.08,535.892C784.995,535.967 784.877,536.005 784.727,536.005C784.153,536.005 783.866,535.629 783.866,534.876C783.866,534.414 783.917,533.791 784.021,533.005C784.124,532.219 784.299,531.28 784.543,530.189C784.656,529.671 784.764,529.238 784.868,528.89C784.972,528.542 785.073,528.262 785.172,528.05C785.27,527.838 785.369,527.69 785.468,527.605C785.567,527.52 785.673,527.478 785.786,527.478C785.974,527.478 786.132,527.525 786.259,527.619C786.386,527.713 786.449,527.817 786.449,527.93C786.449,528.062 786.407,528.316 786.322,528.692Z" style="fill-rule:nonzero;"/>
                <path d="M792.746,530.993C792.746,531.012 792.724,531.165 792.682,531.452C792.64,531.739 792.586,532.071 792.52,532.447C792.369,533.351 792.256,534.054 792.181,534.558C792.106,535.062 792.073,535.323 792.082,535.342C792.082,535.351 792.106,535.32 792.153,535.25C792.2,535.179 792.259,535.09 792.329,534.982C792.4,534.873 792.473,534.751 792.548,534.614C792.623,534.478 792.689,534.353 792.746,534.24C792.793,534.137 792.856,533.993 792.936,533.81C793.016,533.626 793.096,533.426 793.176,533.21C793.256,532.993 793.339,532.772 793.423,532.546C793.508,532.32 793.586,532.118 793.656,531.939C793.727,531.76 793.788,531.612 793.84,531.494C793.892,531.377 793.922,531.318 793.932,531.318C794.054,531.318 794.115,531.365 794.115,531.459C794.115,531.6 794.07,531.824 793.981,532.13C793.892,532.436 793.779,532.772 793.642,533.139C793.506,533.506 793.36,533.871 793.204,534.233C793.049,534.596 792.901,534.894 792.76,535.13C792.713,535.214 792.637,535.339 792.534,535.504C792.43,535.669 792.332,535.822 792.237,535.963L791.899,536.485L791.743,537.205C791.63,537.704 791.513,538.118 791.39,538.447C791.268,538.777 791.122,539.043 790.953,539.245C790.783,539.447 790.583,539.591 790.353,539.676C790.122,539.76 789.837,539.803 789.499,539.803C789.31,539.784 789.155,539.749 789.033,539.697C788.91,539.645 788.83,539.534 788.793,539.365C788.793,539.167 788.802,538.996 788.821,538.85C788.84,538.704 788.884,538.56 788.955,538.419C789.026,538.278 789.136,538.123 789.287,537.953C789.437,537.784 789.64,537.572 789.894,537.318L790.36,536.866L790.543,535.751C790.59,535.44 790.633,535.17 790.67,534.939C790.708,534.709 790.727,534.589 790.727,534.579C790.727,534.579 790.703,534.622 790.656,534.706C790.609,534.791 790.553,534.89 790.487,535.003C790.421,535.116 790.35,535.226 790.275,535.334C790.2,535.443 790.139,535.525 790.092,535.582L789.894,535.807L789.612,535.822L789.513,535.822C789.136,535.822 788.859,535.678 788.68,535.391C788.501,535.104 788.412,534.683 788.412,534.127C788.412,533.789 788.437,533.405 788.489,532.977C788.541,532.549 788.612,532.144 788.701,531.763C788.79,531.382 788.896,531.062 789.019,530.803C789.141,530.544 789.273,530.414 789.414,530.414C789.499,530.414 789.59,530.429 789.689,530.457C789.788,530.485 789.877,530.525 789.957,530.577C790.037,530.629 790.106,530.687 790.162,530.753C790.219,530.819 790.247,530.894 790.247,530.979C790.247,531.092 790.228,531.299 790.19,531.6C790.153,531.902 790.082,532.358 789.979,532.97C789.932,533.271 789.896,533.53 789.873,533.746C789.849,533.963 789.837,534.142 789.837,534.283C789.837,534.443 789.852,534.565 789.88,534.65C789.908,534.734 789.936,534.777 789.964,534.777C790.021,534.777 790.101,534.692 790.204,534.523C790.308,534.353 790.421,534.127 790.543,533.845C790.666,533.563 790.788,533.236 790.91,532.864C791.033,532.492 791.146,532.099 791.249,531.685C791.343,531.309 791.437,531.024 791.532,530.831C791.626,530.638 791.748,530.542 791.899,530.542C792.012,530.542 792.117,530.558 792.216,530.591C792.315,530.624 792.404,530.666 792.484,530.718C792.564,530.77 792.628,530.822 792.675,530.873C792.722,530.925 792.746,530.965 792.746,530.993ZM790.106,538.236C790.181,537.906 790.204,537.737 790.176,537.727C790.148,537.727 790.101,537.77 790.035,537.854C789.856,538.062 789.703,538.273 789.576,538.49C789.449,538.706 789.395,538.852 789.414,538.927C789.423,539.05 789.517,539.054 789.696,538.942C789.8,538.876 789.88,538.796 789.936,538.702C789.993,538.607 790.049,538.452 790.106,538.236Z" style="fill-rule:nonzero;"/>
                <path d="M795.499,529.243C795.433,529.337 795.386,529.393 795.357,529.412C795.329,529.431 795.273,529.44 795.188,529.44C795.066,529.44 794.976,529.412 794.92,529.356C794.863,529.299 794.844,529.247 794.863,529.2C794.873,529.182 794.889,529.127 794.913,529.038C794.936,528.949 794.962,528.852 794.99,528.749C795.037,528.57 795.068,528.363 795.082,528.127C795.096,527.892 795.094,527.676 795.075,527.478C795.066,527.422 795.068,527.386 795.082,527.372C795.096,527.358 795.127,527.346 795.174,527.337C795.268,527.327 795.374,527.349 795.492,527.4C795.609,527.452 795.701,527.52 795.767,527.605C795.917,527.756 795.969,527.977 795.922,528.269C795.913,528.334 795.894,528.412 795.866,528.502C795.837,528.591 795.802,528.68 795.76,528.77C795.717,528.859 795.673,528.946 795.626,529.031C795.579,529.116 795.536,529.186 795.499,529.243Z" style="fill-rule:nonzero;"/>
                <path d="M798.167,531.445C798.233,531.473 798.266,531.539 798.266,531.643C798.266,531.746 798.235,531.869 798.174,532.01C798.113,532.151 798.028,532.306 797.92,532.476C797.812,532.645 797.684,532.819 797.539,532.998C797.393,533.177 797.235,533.351 797.066,533.52L796.741,533.845L796.741,534.127C796.741,534.41 796.717,534.671 796.67,534.911C796.623,535.151 796.543,535.356 796.43,535.525C796.317,535.694 796.167,535.817 795.979,535.892C795.79,535.967 795.555,535.986 795.273,535.949C795.141,535.93 795.016,535.885 794.899,535.814C794.781,535.744 794.68,535.662 794.595,535.567C794.51,535.473 794.444,535.372 794.397,535.264C794.35,535.156 794.327,535.059 794.327,534.974C794.327,534.805 794.376,534.657 794.475,534.53C794.574,534.403 794.68,534.292 794.793,534.198C794.906,534.104 795.012,534.029 795.11,533.972C795.209,533.916 795.259,533.864 795.259,533.817C795.259,533.789 795.254,533.732 795.244,533.647C795.235,533.563 795.223,533.466 795.209,533.358C795.195,533.25 795.183,533.132 795.174,533.005C795.164,532.878 795.16,532.758 795.16,532.645C795.16,532.325 795.197,532.029 795.273,531.756C795.348,531.483 795.447,531.243 795.569,531.036C795.692,530.829 795.83,530.666 795.986,530.549C796.141,530.431 796.299,530.372 796.459,530.372C796.534,530.372 796.616,530.386 796.706,530.414C796.795,530.443 796.877,530.48 796.953,530.527C797.028,530.574 797.089,530.624 797.136,530.676C797.183,530.727 797.207,530.782 797.207,530.838C797.207,530.838 797.174,530.878 797.108,530.958C797.042,531.038 796.972,531.153 796.896,531.304C796.821,531.454 796.75,531.633 796.684,531.84C796.619,532.047 796.586,532.269 796.586,532.504C796.586,532.56 796.588,532.633 796.593,532.723C796.597,532.812 796.609,532.899 796.628,532.984C796.637,533.087 796.652,533.186 796.67,533.28C796.68,533.28 796.715,533.257 796.776,533.21C796.837,533.163 796.906,533.102 796.981,533.026C797.056,532.951 797.132,532.871 797.207,532.786C797.282,532.702 797.343,532.626 797.39,532.56C797.447,532.485 797.51,532.386 797.581,532.264C797.652,532.142 797.72,532.019 797.786,531.897C797.852,531.774 797.908,531.669 797.955,531.579C798.002,531.49 798.03,531.436 798.04,531.417L798.103,531.417C798.127,531.417 798.148,531.426 798.167,531.445ZM795.202,534.946C795.24,534.852 795.263,534.763 795.273,534.678C795.282,534.593 795.273,534.551 795.244,534.551C795.216,534.551 795.16,534.582 795.075,534.643C794.99,534.704 794.939,534.753 794.92,534.791C794.873,534.866 794.863,534.939 794.892,535.01C794.92,535.08 794.972,535.116 795.047,535.116C795.084,535.116 795.136,535.059 795.202,534.946Z" style="fill-rule:nonzero;"/>
            </g>
            <g transform="matrix(2.24698,0,0,4.15579,-1140.67,-1994.39)">
                <path d="M764.092,535.906L764.092,529.547L766.835,529.547C767.544,529.547 768.093,529.69 768.484,529.974C768.875,530.259 769.07,530.662 769.07,531.183C769.07,531.528 768.99,531.818 768.829,532.055C768.669,532.291 768.451,532.469 768.175,532.591C767.9,532.712 767.598,532.772 767.271,532.772L767.426,532.554C767.831,532.554 768.181,532.616 768.475,532.74C768.769,532.865 768.997,533.049 769.161,533.295C769.324,533.54 769.406,533.844 769.406,534.208C769.406,534.747 769.208,535.164 768.811,535.461C768.414,535.758 767.816,535.906 767.017,535.906L764.092,535.906ZM764.764,535.352L767.008,535.352C767.565,535.352 767.992,535.257 768.289,535.066C768.585,534.875 768.734,534.571 768.734,534.153C768.734,533.741 768.585,533.44 768.289,533.249C767.992,533.058 767.565,532.963 767.008,532.963L764.691,532.963L764.691,532.409L766.79,532.409C767.299,532.409 767.694,532.312 767.975,532.118C768.257,531.924 768.398,531.637 768.398,531.255C768.398,530.868 768.257,530.578 767.975,530.388C767.694,530.197 767.299,530.102 766.79,530.102L764.764,530.102L764.764,535.352Z" style="fill-rule:nonzero;"/>
                <rect x="770.805" y="529.166" width="0.645" height="6.74" style="fill-rule:nonzero;"/>
                <path d="M775.193,535.952C774.732,535.952 774.319,535.847 773.953,535.638C773.586,535.429 773.297,535.142 773.085,534.775C772.873,534.409 772.767,533.99 772.767,533.517C772.767,533.039 772.873,532.618 773.085,532.254C773.297,531.891 773.585,531.606 773.948,531.401C774.311,531.195 774.726,531.092 775.193,531.092C775.665,531.092 776.084,531.195 776.451,531.401C776.817,531.606 777.105,531.891 777.314,532.254C777.523,532.618 777.627,533.039 777.627,533.517C777.627,533.99 777.523,534.409 777.314,534.775C777.105,535.142 776.816,535.429 776.446,535.638C776.077,535.847 775.659,535.952 775.193,535.952ZM775.193,535.379C775.538,535.379 775.844,535.302 776.11,535.148C776.377,534.993 776.587,534.775 776.741,534.494C776.896,534.212 776.973,533.887 776.973,533.517C776.973,533.142 776.896,532.815 776.741,532.536C776.587,532.257 776.377,532.041 776.11,531.887C775.844,531.732 775.541,531.655 775.202,531.655C774.863,531.655 774.56,531.732 774.293,531.887C774.027,532.041 773.815,532.257 773.657,532.536C773.5,532.815 773.421,533.142 773.421,533.517C773.421,533.887 773.5,534.212 773.657,534.494C773.815,534.775 774.027,534.993 774.293,535.148C774.56,535.302 774.86,535.379 775.193,535.379Z" style="fill-rule:nonzero;"/>
                <path d="M780.979,537.714C780.543,537.714 780.125,537.65 779.726,537.523C779.326,537.396 779.002,537.214 778.754,536.978L779.081,536.488C779.305,536.687 779.582,536.846 779.912,536.965C780.242,537.083 780.592,537.142 780.961,537.142C781.567,537.142 782.012,537.001 782.296,536.719C782.581,536.438 782.723,536 782.723,535.407L782.723,534.217L782.814,533.399L782.751,532.581L782.751,531.137L783.368,531.137L783.368,535.325C783.368,536.149 783.167,536.753 782.764,537.137C782.361,537.522 781.766,537.714 780.979,537.714ZM780.861,535.725C780.407,535.725 779.998,535.626 779.635,535.429C779.271,535.233 778.985,534.958 778.776,534.607C778.567,534.256 778.463,533.853 778.463,533.399C778.463,532.945 778.567,532.544 778.776,532.195C778.985,531.847 779.271,531.576 779.635,531.382C779.998,531.189 780.407,531.092 780.861,531.092C781.285,531.092 781.667,531.179 782.006,531.355C782.345,531.531 782.614,531.791 782.814,532.136C783.014,532.482 783.114,532.902 783.114,533.399C783.114,533.896 783.014,534.317 782.814,534.662C782.614,535.007 782.345,535.27 782.006,535.452C781.667,535.634 781.285,535.725 780.861,535.725ZM780.925,535.152C781.276,535.152 781.588,535.078 781.86,534.93C782.133,534.781 782.348,534.575 782.505,534.312C782.663,534.049 782.742,533.744 782.742,533.399C782.742,533.054 782.663,532.751 782.505,532.491C782.348,532.23 782.133,532.026 781.86,531.877C781.588,531.729 781.276,531.655 780.925,531.655C780.579,531.655 780.269,531.729 779.994,531.877C779.718,532.026 779.503,532.23 779.349,532.491C779.194,532.751 779.117,533.054 779.117,533.399C779.117,533.744 779.194,534.049 779.349,534.312C779.503,534.575 779.718,534.781 779.994,534.93C780.269,535.078 780.579,535.152 780.925,535.152Z" style="fill-rule:nonzero;"/>
            </g>
            <g id="XMLID_1960_" transform="matrix(0.218267,0,0,0.403685,644.208,203.903)">
                <path d="M76,2L16,2C13.8,2 12,3.8 12,6L12,86C12,88.2 13.8,90 16,90L76,90C78.2,90 80,88.2 80,86L80,6C80,3.8 78.2,2 76,2ZM72,82L20,82L20,10L72,10L72,82ZM28.5,65C28.5,62.8 30.3,61 32.5,61L59.5,61C61.7,61 63.5,62.8 63.5,65C63.5,67.2 61.7,69 59.5,69L32.5,69C30.3,69 28.5,67.2 28.5,65ZM29.1,46C29.1,43.8 30.9,42 33.1,42L59.4,42C61.6,42 63.4,43.8 63.4,46C63.4,48.2 61.6,50 59.4,50L33.1,50C30.9,50 29.1,48.2 29.1,46ZM29.1,27C29.1,24.8 30.9,23 33.1,23L59.4,23C61.6,23 63.4,24.8 63.4,27C63.4,29.2 61.6,31 59.4,31L33.1,31C30.9,31 29.1,29.2 29.1,27Z" style="fill-rule:nonzero;"/>
            </g>
        </g>
    </g>
</svg>
